<?xml version="1.0" encoding="UTF-8"?>
<svg width="161px" height="161px" viewBox="0 0 161 161" version="1.1" xmlns="http://www.w3.org/2000/svg" xmlns:xlink="http://www.w3.org/1999/xlink">
    <title>favicon</title>
    <g id="main" stroke="none" stroke-width="1" fill="none" fill-rule="evenodd">
        <g id="favicon">
            <path d="M41.227274,-1.66563121e-15 L118.912726,1.66563121e-15 C133.248347,-9.67779703e-16 138.44679,1.49263583 143.687679,4.29549388 C148.928568,7.09835193 153.041648,11.2114322 155.844506,16.4523211 C158.647364,21.69321 160.14,26.8916527 160.14,41.227274 L160.14,118.912726 C160.14,133.248347 158.647364,138.44679 155.844506,143.687679 C153.041648,148.928568 148.928568,153.041648 143.687679,155.844506 C138.44679,158.647364 133.248347,160.14 118.912726,160.14 L41.227274,160.14 C26.8916527,160.14 21.69321,158.647364 16.4523211,155.844506 C11.2114322,153.041648 7.09835193,148.928568 4.29549388,143.687679 C1.49263583,138.44679 6.45186468e-16,133.248347 -1.11042081e-15,118.912726 L1.11042081e-15,41.227274 C-6.45186468e-16,26.8916527 1.49263583,21.69321 4.29549388,16.4523211 C7.09835193,11.2114322 11.2114322,7.09835193 16.4523211,4.29549388 C21.69321,1.49263583 26.8916527,9.67779703e-16 41.227274,-1.66563121e-15 Z" id="square" fill="#42B983"></path>
            <path d="M80.5,46.7270085 C61.3333333,27.5970817 23,34.1012568 23,65.8569352 C23,97.6126137 80.5,136 80.5,136 C80.5,136 138,97.6126137 138,65.8569352 C138,34.1012568 99.6666667,27.5970817 80.5,46.7270085 Z M88.3661092,100 L72.6237299,100 L77.3464437,79.1205538 C73.0172894,77.8396062 70,73.8686686 70,69.2572572 C70,63.6210877 74.7227138,58.7534867 80.4949196,59.0096763 C86.3983118,59.2658658 91.2522121,63.7491824 90.9898391,69.2572572 C90.8586526,73.7405739 87.8413632,77.8396062 83.7745819,79.1205538 L88.3661092,100 Z" id="logo" fill="#2C3E50" fill-rule="nonzero"></path>
        </g>
    </g>
</svg>